<svg width="80" height="80" viewBox="0 0 80 80" fill="none" xmlns="http://www.w3.org/2000/svg">
<g clip-path="url(#clip0_1_53721)">
<path d="M40 0C17.8752 0 0 17.8752 0 40C0 62.1248 17.8752 80 40 80C62.1248 80 80 62.064 80 40C80 17.936 62.064 0 40 0Z" fill="#090D1C"/>
<path d="M40.5633 36.5633C50.0641 38.4993 54.8129 41.8145 57.2513 44.0641C57.8145 44.5633 58.7521 44.1889 58.7521 43.3761V31.1873C58.7521 29.8753 58.0641 28.6241 56.9409 28.0001L41.7537 19.2514C40.6273 18.5634 39.1905 18.5634 38.0673 19.2514L28.064 25.0625C25.8752 26.3137 25.5648 29.3761 27.5008 30.9985C30.4992 33.5617 35.4369 35.5009 40.5633 36.5633ZM39.4369 43.4369C29.936 41.5009 25.1872 38.1857 22.7488 35.9361C22.1856 35.4369 21.312 35.8113 21.312 36.6241V48.8129C21.312 50.1249 22 51.3761 23.1872 52.0001L38.3137 60.8128C39.4401 61.5008 40.8129 61.5008 41.9393 60.8128L51.9393 55.0017C54.1281 53.7505 54.3777 50.6881 52.5025 49.0657C49.5009 46.4385 44.6241 44.4993 39.4369 43.4369Z" fill="white"/>
</g>
<defs>
<clipPath id="clip0_1_53721">
<rect width="80" height="80" fill="white"/>
</clipPath>
</defs>
</svg>
