<svg width="80" height="80" viewBox="0 0 80 80" fill="none" xmlns="http://www.w3.org/2000/svg">
<g clip-path="url(#clip0_1_53724)">
<path fill-rule="evenodd" clip-rule="evenodd" d="M0 0H80V80H0V0Z" fill="white"/>
<path fill-rule="evenodd" clip-rule="evenodd" d="M3.66709 44.2856C4.55111 44.5329 10.0146 45.9328 10.2155 44.1623C10.3362 43.0097 7.00146 42.6798 6.19796 42.3092C2.62246 40.7445 2.70256 35.7624 6.07718 34.0741C7.4829 33.3739 10.6571 33.2918 12.1831 33.6213C12.7858 33.745 13.3888 34.1567 13.991 34.4858V37.8621C13.3079 37.6973 8.00501 36.1737 8.00501 38.1505C8.00501 39.4679 14.6339 39.0561 14.6339 43.7913C14.6339 49.0207 8.84877 49.3909 5.19317 48.4849C4.67106 48.3616 4.14811 47.9084 3.66626 47.6614V44.2856H3.66709ZM22.732 33.3358C23.9775 33.3358 25.7049 33.5005 26.2673 34.3654V33.3358H29.9233V48.8995H26.2673V47.8706C25.7447 48.8995 23.9775 49.0231 22.732 49.0231C18.795 49.0231 15.581 45.4817 15.581 41.1998C15.581 36.8768 18.795 33.3358 22.732 33.3358ZM22.7719 37.4944C24.5797 37.4944 26.0664 39.1416 26.0664 41.1176C26.0664 43.0948 24.5797 44.7408 22.7719 44.7408C20.964 44.7408 19.4773 43.0944 19.4773 41.1176C19.4778 39.1416 20.964 37.4944 22.7719 37.4944ZM32.1587 48.9231H36.1359V39.9061C36.1359 36.6946 40.7154 36.8179 40.7154 39.9061V48.9231H44.8931V38.9179C44.8931 31.4656 32.1582 31.5893 32.1582 38.9179V48.9231H32.1587ZM53.6515 33.3358C57.7898 33.3358 61.2047 36.8768 61.2047 41.2006C61.2047 45.4821 57.7894 49.024 53.6515 49.024C49.5141 49.024 46.1 45.4825 46.1 41.2006C46.0996 36.8768 49.5141 33.3358 53.6515 33.3358ZM53.6515 37.577C55.5403 37.577 57.1071 39.2238 57.1071 41.2006C57.1071 43.1355 55.5403 44.7828 53.6515 44.7828C51.7635 44.7828 50.1976 43.1355 50.1976 41.2006C50.1972 39.2238 51.7635 37.577 53.6515 37.577ZM62.4506 38.4888V48.9061H66.5076L66.5084 40.7644H70.6442V37.6313H66.5076C66.5076 36.5195 67.1218 35.1636 68.3233 35.0581L70.7729 34.844L70.772 31.2411C65.3891 31.2407 62.4506 32.9527 62.4506 38.4888ZM74.2774 30.9775C75.4619 30.9775 76.4273 31.967 76.4273 33.1805C76.4273 34.3937 75.4619 35.3831 74.2774 35.3831C73.0937 35.3831 72.1283 34.3937 72.1283 33.1805C72.1283 31.967 73.0937 30.9775 74.2774 30.9775ZM72.2541 36.629V48.9061H76.4725V36.629H72.2541Z" fill="#0094D6"/>
</g>
<defs>
<clipPath id="clip0_1_53724">
<rect width="80" height="80" fill="white"/>
</clipPath>
</defs>
</svg>
