<svg width="80" height="80" viewBox="0 0 80 80" fill="none" xmlns="http://www.w3.org/2000/svg">
<rect width="80" height="80" fill="white"/>
<g clip-path="url(#clip0_1_53714)">
<path d="M37.9893 33.5688C37.9893 33.5688 37.9893 24.5859 46.9727 24.5859H73.9219C73.9219 24.5859 73.9219 33.5691 64.9385 33.5691H37.9893V33.5688ZM37.9893 45.0473C37.9893 45.0473 37.9893 36.0641 46.9727 36.0641H60.4471C60.4471 36.0641 60.4471 45.0476 51.4636 45.0476H37.9893V45.0473ZM37.9893 56.5258C37.9893 56.5258 37.9893 47.5428 46.9727 47.5428H51.4636C51.4636 47.5428 51.4636 56.5258 42.481 56.5258H37.9893Z" fill="#6FB643"/>
<path d="M34.9733 49.5154V56.682H6.08496L24.6947 31.2967H8.7189V24.1299H38.8557L20.332 49.5154H34.9733Z" fill="#6FB643"/>
</g>
<defs>
<clipPath id="clip0_1_53714">
<rect width="68" height="32.9392" fill="white" transform="translate(6 24)"/>
</clipPath>
</defs>
</svg>
