<svg width="80" height="80" viewBox="0 0 80 80" fill="none" xmlns="http://www.w3.org/2000/svg">
<mask id="mask0_1_53674" style="mask-type:alpha" maskUnits="userSpaceOnUse" x="0" y="0" width="80" height="80">
<circle cx="40" cy="40" r="40" fill="#C4C4C4"/>
</mask>
<g mask="url(#mask0_1_53674)">
</g>
<g clip-path="url(#clip0_1_53674)">
<path d="M11.1013 66.7399L13.1278 68.7664C22.0705 72.5109 31.0132 76.2994 40 79.9998V63.7003L23.2599 56.784L16.3436 40.0439L23.2599 23.3038L11.1013 13.2598L0 39.9999L11.1013 66.7399Z" fill="#598282"/>
<path d="M39.9998 0C31.057 3.70044 22.0702 7.48899 13.1275 11.2335L11.1011 13.2599L23.2597 23.2599L39.9998 16.3436V0Z" fill="#FBBB31"/>
<path d="M39.9999 23.2598L28.1496 28.1937L23.2598 39.9999L28.1496 51.8501L39.9999 56.7399V23.2598Z" fill="#598282"/>
<path d="M40.0001 79.9998C48.9428 76.2994 57.8856 72.5109 66.8283 68.7664L68.8547 66.7399L79.9561 39.9999L68.8547 13.2598L56.6961 23.2598L63.6124 39.9999L56.6961 56.7399L39.9561 63.6562V79.9998H40.0001Z" fill="#326464"/>
<path d="M68.8987 13.2599L66.8722 11.1894C57.8855 7.48899 48.9427 3.74449 40 0V16.2996L56.7401 23.2159L68.8987 13.2599Z" fill="#FAAA00"/>
<path d="M40 56.7399L51.8502 51.8501L56.7401 39.9999L51.8502 28.1937L40 23.2598V56.7399Z" fill="#326464"/>
</g>
<defs>
<clipPath id="clip0_1_53674">
<rect width="80" height="80" fill="white"/>
</clipPath>
</defs>
</svg>
