<svg width="24" height="24" viewBox="0 0 24 24" fill="none" xmlns="http://www.w3.org/2000/svg">
<path d="M11.8232 21.1767L12 21.3534L12.1768 21.1767L17.4268 15.9267L17.6036 15.7499L17.4268 15.5731L16.3693 14.5156L16.1927 14.339L16.0159 14.5154L12 18.5241L7.98412 14.5154L7.80734 14.339L7.63072 14.5156L6.57322 15.5731L6.39645 15.7499L6.57322 15.9267L11.8232 21.1767Z" fill="#25324B" stroke="#25324B" stroke-width="0.5"/>
<path d="M12.1768 2.82322L12 2.64645L11.8232 2.82322L6.57322 8.07322L6.39645 8.25L6.57322 8.42678L7.63072 9.48428L7.80734 9.66089L7.98412 9.48443L12 5.47574L16.0159 9.48443L16.1927 9.66089L16.3693 9.48428L17.4268 8.42678L17.6036 8.25L17.4268 8.07322L12.1768 2.82322Z" fill="#25324B" stroke="#25324B" stroke-width="0.5"/>
</svg>
