<svg width="24" height="24" viewBox="0 0 24 24" fill="none" xmlns="http://www.w3.org/2000/svg">
<path d="M12.0001 14.3996C12.6366 14.3996 13.2471 14.1468 13.6972 13.6967C14.1472 13.2466 14.4001 12.6361 14.4001 11.9996C14.4001 11.3631 14.1472 10.7526 13.6972 10.3026C13.2471 9.85247 12.6366 9.59961 12.0001 9.59961C11.3636 9.59961 10.7531 9.85247 10.303 10.3026C9.85295 10.7526 9.6001 11.3631 9.6001 11.9996C9.6001 12.6361 9.85295 13.2466 10.303 13.6967C10.7531 14.1468 11.3636 14.3996 12.0001 14.3996Z" fill="#25324B"/>
<path fill-rule="evenodd" clip-rule="evenodd" d="M0.549805 11.9996C2.0786 7.13121 6.6266 3.59961 12.0002 3.59961C17.3738 3.59961 21.9218 7.13121 23.4506 11.9996C21.9218 16.868 17.3738 20.3996 12.0002 20.3996C6.6266 20.3996 2.0786 16.868 0.549805 11.9996ZM16.8002 11.9996C16.8002 13.2726 16.2945 14.4935 15.3943 15.3937C14.4941 16.2939 13.2732 16.7996 12.0002 16.7996C10.7272 16.7996 9.50627 16.2939 8.60609 15.3937C7.70592 14.4935 7.2002 13.2726 7.2002 11.9996C7.2002 10.7266 7.70592 9.50567 8.60609 8.6055C9.50627 7.70532 10.7272 7.19961 12.0002 7.19961C13.2732 7.19961 14.4941 7.70532 15.3943 8.6055C16.2945 9.50567 16.8002 10.7266 16.8002 11.9996Z" fill="#25324B"/>
</svg>
