<svg width="24" height="24" viewBox="0 0 24 24" fill="none" xmlns="http://www.w3.org/2000/svg">
<path d="M21.8567 13.9207L20.5935 12.4645C21.504 11.3255 22 9.91734 22 8.44531C22 4.89137 19.1087 2 15.5547 2C12.0007 2 9.10939 4.89137 9.10939 8.44531C9.10939 8.68285 9.12271 8.9173 9.14786 9.14824C8.91489 9.12289 8.68032 9.10938 8.44532 9.10938C4.89138 9.10938 2.00001 12.0007 2.00001 15.5547C2.00001 17.0267 2.49606 18.4349 3.40653 19.5739L2.14333 21.0301C1.99298 21.2035 1.95763 21.4486 2.0529 21.6573C2.14817 21.8661 2.35649 22 2.58595 22H8.44532C11.9993 22 14.8906 19.1086 14.8906 15.5547C14.8906 15.3197 14.8771 15.0851 14.8518 14.8521C15.0827 14.8773 15.3172 14.8906 15.5547 14.8906H21.4141C21.6435 14.8906 21.8519 14.7567 21.9471 14.548C22.0424 14.3392 22.007 14.0941 21.8567 13.9207ZM8.44532 20.8281H3.86989L4.62478 19.9579C4.82196 19.7306 4.81489 19.3909 4.60841 19.172C3.68208 18.1897 3.17189 16.9051 3.17189 15.5547C3.17189 12.6469 5.53755 10.2812 8.44532 10.2812C8.76696 10.2812 9.08759 10.3105 9.40239 10.3683C10.032 12.3784 11.6216 13.968 13.6317 14.5976C13.6895 14.9124 13.7188 15.233 13.7188 15.5547C13.7188 18.4625 11.3531 20.8281 8.44532 20.8281ZM15.5547 13.7188C12.6469 13.7188 10.2813 11.3531 10.2813 8.44531C10.2813 5.53754 12.6469 3.17188 15.5547 3.17188C18.4625 3.17188 20.8281 5.53754 20.8281 8.44531C20.8281 9.7957 20.3179 11.0804 19.3916 12.0626C19.1851 12.2815 19.1781 12.6213 19.3752 12.8486L20.1301 13.7188H15.5547Z" fill="#25324B" stroke="#25324B" stroke-width="0.5"/>
<path d="M15.5547 12.4297C15.8783 12.4297 16.1406 12.1674 16.1406 11.8438C16.1406 11.5201 15.8783 11.2578 15.5547 11.2578C15.2311 11.2578 14.9688 11.5201 14.9688 11.8438C14.9688 12.1674 15.2311 12.4297 15.5547 12.4297Z" fill="#25324B" stroke="#25324B" stroke-width="0.5"/>
<path d="M15.6012 4.42235C14.4641 4.39903 13.4859 5.23118 13.3288 6.35708C13.3144 6.46005 13.3071 6.56524 13.3071 6.66985C13.3071 6.99345 13.5695 7.25579 13.8931 7.25579C14.2167 7.25579 14.479 6.99345 14.479 6.66985C14.479 6.61923 14.4825 6.56845 14.4894 6.51903C14.5635 5.98794 15.0198 5.59376 15.5555 5.59376C15.5629 5.59376 15.5702 5.59384 15.5776 5.59399C16.1385 5.60528 16.6006 6.05235 16.6296 6.61181C16.6451 6.9106 16.5406 7.19419 16.3354 7.41036C16.13 7.62673 15.8528 7.74591 15.5551 7.74591C15.2315 7.74591 14.9691 8.00825 14.9691 8.33185V10.0698C14.9691 10.3934 15.2315 10.6557 15.5551 10.6557C15.8787 10.6557 16.141 10.3934 16.141 10.0698V8.83931C16.536 8.73204 16.8998 8.51794 17.1852 8.21724C17.614 7.76567 17.8323 7.17395 17.7999 6.55106C17.7392 5.38103 16.7734 4.44599 15.6012 4.42235Z" fill="#25324B" stroke="#25324B" stroke-width="0.5"/>
<path d="M10.3984 13.7969H6.49219C6.16859 13.7969 5.90625 14.0592 5.90625 14.3828C5.90625 14.7064 6.16859 14.9688 6.49219 14.9688H10.3984C10.722 14.9688 10.9844 14.7064 10.9844 14.3828C10.9844 14.0592 10.722 13.7969 10.3984 13.7969Z" fill="#25324B" stroke="#25324B" stroke-width="0.5"/>
<path d="M10.3984 16.1406H6.49219C6.16859 16.1406 5.90625 16.403 5.90625 16.7266C5.90625 17.0502 6.16859 17.3125 6.49219 17.3125H10.3984C10.722 17.3125 10.9844 17.0502 10.9844 16.7266C10.9844 16.403 10.722 16.1406 10.3984 16.1406Z" fill="#25324B" stroke="#25324B" stroke-width="0.5"/>
</svg>
